<?xml version="1.0" encoding="UTF-8" standalone="no"?>
<svg width="200px" height="229px" viewBox="0 0 200 229" version="1.1" xmlns="http://www.w3.org/2000/svg" xmlns:xlink="http://www.w3.org/1999/xlink">
    <!-- Generator: Sketch 3.7.2 (28276) - http://www.bohemiancoding.com/sketch -->
    <title>voting</title>
    <desc>Created with Sketch.</desc>
    <defs></defs>
    <g id="Page-1" stroke="none" stroke-width="1" fill="none" fill-rule="evenodd">
        <g id="voting" fill="#16A085">
            <g id="Group">
                <g>
                    <path d="M46.0695702,82.2172214 L97.41164,82.2172214 L97.41164,107.788232 L46.0695702,107.788232 L46.0695702,82.2172214 L46.0695702,82.2172214 Z M26.7946851,56.6462108 L116.600093,56.6462108 L116.600093,133.359243 L26.7946851,133.359243 L26.7946851,56.6462108 L26.7946851,56.6462108 Z" id="Shape"></path>
                    <polygon id="Shape" points="143.48121 213.946669 1.27635076e-07 213.946669 10.0263979 139.730471 133.454812 139.730471"></polygon>
                    <rect id="Rectangle-path" x="12.1872593" y="219.026435" width="20.0527959" height="9.98733061"></rect>
                    <rect id="Rectangle-path" x="111.241157" y="219.026435" width="20.0527959" height="9.98733061"></rect>
                    <path d="M180.044943,0.166166748 C169.413505,0.166166748 160.740169,9.81197385 160.740169,21.7795507 C160.740169,33.6610304 169.413505,43.3929346 180.044943,43.3929346 C190.676382,43.3929346 199.349718,33.747128 199.349718,21.7795507 C199.349718,9.89807141 190.676382,0.166166748 180.044943,0.166166748 L180.044943,0.166166748 Z" id="Shape"></path>
                    <path d="M89.6634986,9.06579542 L104.899912,24.2428408 C103.40374,24.9351912 102.074606,25.9134892 101.070865,27.3418186 C99.4241432,29.6851137 99.0562076,32.5290206 99.7147449,35.1289937 L85.1165062,49.6703512 L67.0083086,31.55325 L89.6634986,9.06579542 L89.6634986,9.06579542 Z M89.6634986,4.53652012 L62.3815444,31.712172 L85.0367344,54.1996266 L101.070865,38.2279715 C101.711771,39.1694887 102.481004,40.0058325 103.464019,40.6912616 L135.213194,62.6224894 C136.941883,63.8278577 138.888997,64.2978064 140.876992,64.2117088 L160.819941,65.8803892 L160.740169,153.843683 L167.520771,153.843683 L167.520771,219.398984 C167.520771,224.650942 171.820882,228.9343 177.093387,228.9343 L182.916728,228.9343 C188.18923,228.9343 192.489344,224.650942 192.489344,219.398984 L192.489344,153.843683 L199.269946,153.843683 L199.269946,67.5490696 C199.269946,57.2173482 191.520559,49.3394122 181.321292,48.4784367 L143.90832,45.2999979 L143.828548,45.2999979 L114.472527,24.9579895 C112.663364,23.6965078 110.555941,23.2512746 108.489642,23.3687701 L89.6634986,4.53652012 L89.6634986,4.53652012 Z" id="Shape"></path>
                </g>
            </g>
        </g>
    </g>
</svg>